<svg width="372" height="462" viewBox="0 0 372 462" fill="none" xmlns="http://www.w3.org/2000/svg">
<path d="M255.812 191.154C265.507 192.619 308.789 205.336 308.789 205.336C308.789 205.336 338.331 145.757 343.141 125.794" stroke="#F4B75D" stroke-width="12" stroke-miterlimit="10"/>
<path d="M336.65 131.266L345.505 134.041L348.559 124.175L344.055 122.788C341.612 122.017 339.093 123.404 338.33 125.871L336.65 131.266Z" fill="#F4B75D"/>
<path d="M164 249.385H277V461.422H164V249.385Z" fill="white" stroke="#231F20" stroke-miterlimit="10"/>
<path d="M330.467 317.559L341.765 340.065C341.765 340.065 370.772 326.808 371.078 326.808C371.383 326.808 371.307 321.798 357.642 319.949C357.642 319.949 353.139 319.332 352.223 318.099C352.223 318.099 345.123 310.006 345.123 308.927L330.467 317.559Z" fill="black"/>
<path d="M256.65 321.259L245.2 344.382C245.2 344.382 273.75 360.337 273.979 360.645C274.131 360.876 278.177 357.716 271.383 345.307C271.383 345.307 269.17 341.222 269.551 339.68C269.551 339.68 271.841 328.812 272.681 328.196L256.65 321.259Z" fill="black"/>
<path d="M210 176.634L230 178.634L262 176V217.634H210V176.634Z" fill="white"/>
<path d="M259.016 198.323L259.245 198.014C259.245 198.014 266.345 191.232 270.009 190.923C273.597 190.615 278.024 191.694 278.329 191.848C278.635 192.002 282.91 197.86 282.91 197.86C284.131 197.475 281.383 190.692 281.383 190.692C282.604 194.469 286.116 198.091 286.116 198.091C286.803 195.548 284.055 188.38 284.055 188.38C283.444 188.071 290.009 196.473 290.009 196.473C291.154 194.006 285.963 186.067 285.963 186.067L289.627 191.155C292.986 195.24 292.91 191.694 292.91 191.694C293.062 190.692 285.047 180.903 285.047 180.903C291.459 176.356 301.612 175.739 301.612 175.739L306.65 179.362C308.635 178.745 303.52 173.042 303.52 173.042L309.856 179.362C311.612 177.281 304.894 169.882 304.894 169.882C310.162 176.356 312.757 175.893 312.757 175.893C313.978 174.66 306.574 167.338 306.574 167.338L311.536 171.731L315.352 171.115C299.016 154.004 281.23 164.101 281.23 164.101L230.085 189.382L225.734 181.674L209.169 194.006C224.436 227.149 259.016 198.4 259.016 198.323C311.841 203.41 316.497 227.689 316.497 227.689L355.887 305.304L320.849 324.188L303.139 290.814L302.223 289.427L282.528 332.666L246.803 317.251L275.352 251.043L190.925 250.118C190.925 250.118 158.024 238.865 166.497 196.087C174.971 153.31 205.429 195.317 205.429 195.317" fill="white"/>
<path d="M259.016 198.323L259.245 198.014C259.245 198.014 266.345 191.232 270.009 190.923C273.597 190.615 278.024 191.694 278.329 191.848C278.635 192.002 282.91 197.86 282.91 197.86C284.131 197.475 281.383 190.692 281.383 190.692C282.604 194.469 286.116 198.091 286.116 198.091C286.803 195.548 284.055 188.38 284.055 188.38C283.444 188.071 290.009 196.473 290.009 196.473C291.154 194.006 285.963 186.067 285.963 186.067L289.627 191.155C292.986 195.24 292.91 191.694 292.91 191.694C293.062 190.692 285.047 180.903 285.047 180.903C291.459 176.356 301.612 175.739 301.612 175.739L306.65 179.362C308.635 178.745 303.52 173.042 303.52 173.042L309.856 179.362C311.612 177.281 304.894 169.882 304.894 169.882C310.162 176.356 312.757 175.893 312.757 175.893C313.978 174.66 306.574 167.338 306.574 167.338L311.536 171.731L315.352 171.115C299.016 154.004 281.23 164.101 281.23 164.101L230.085 189.382L225.734 181.674L209.169 194.006C224.436 227.149 259.016 198.4 259.016 198.323ZM259.016 198.323C311.841 203.41 316.497 227.689 316.497 227.689L355.887 305.304L320.849 324.188L303.139 290.814L302.223 289.427L282.528 332.666L246.803 317.251L275.352 251.043L190.925 250.118C190.925 250.118 158.024 238.865 166.497 196.087C174.971 153.31 205.429 195.317 205.429 195.317" stroke="#231F20" stroke-miterlimit="10"/>
<path d="M284.816 180.98C284.816 180.98 271.839 187.378 268.939 191.232" stroke="#231F20" stroke-miterlimit="10"/>
<path d="M256.5 176.182C256.5 176.182 230.313 178.36 228.558 178.976L225.962 181.674" stroke="#231F20" stroke-miterlimit="10"/>
<path d="M222.679 86.331L210.236 77.9297L192.221 84.9436L185.122 96.8904L178.023 116.159L182.985 122.788L198.939 128.646L205.427 112.845C205.427 112.845 214.969 116.237 221.61 99.2798C221.61 99.2798 224.282 87.41 222.679 86.331Z" fill="white"/>
<path d="M209.171 195.317L149.4 196.473C149.4 196.473 155.965 144.061 174.056 126.95H131.919C131.919 126.95 129.324 115.312 139.476 110.841C139.476 110.841 149.095 110.302 153.522 96.7363C153.522 96.7363 153.14 85.329 170.392 85.4831C170.392 85.4831 177.186 73.6905 179.553 71.3782C179.553 71.3782 179.171 69.6825 176.194 70.4533C176.194 70.4533 164.896 65.8287 173.369 57.1962C173.369 57.1962 180.392 51.1072 188.102 59.7397C188.102 59.7397 189.782 62.9769 188.484 65.8287C188.484 65.8287 197.873 61.1271 208.789 65.3663C208.789 65.3663 223.98 71.0699 224.896 88.4891L221.69 88.7974C221.69 88.7974 216.041 85.6373 213.598 81.8606C213.598 81.8606 209.018 90.9556 204.209 92.0346L197.186 91.9575C197.186 91.9575 196.423 85.1748 191.537 89.8765C191.537 89.8765 187.797 96.8133 194.133 100.359L180.545 119.397L201.69 126.873L202.835 140.438C202.835 140.438 227.003 171.134 228.484 178.899C228.56 178.899 221.503 184.26 209.171 195.317Z" fill="black"/>
<path d="M223.598 87.9495C223.598 87.9495 222.224 110.764 209.247 112.922L204.895 113.385L199.781 127.258" stroke="#231F20" stroke-miterlimit="10"/>
<path d="M204.664 113.385C204.664 113.385 201.916 113.308 201.992 116.237C201.992 116.237 201.611 113.076 199.473 112.306L189.168 106.679" stroke="#231F20" stroke-miterlimit="10"/>
<path d="M210.238 103.211C210.238 103.211 206.421 103.056 205.429 99.8964" stroke="#231F20" stroke-miterlimit="10"/>
<path d="M196.039 95.8883C196.039 95.8883 195.199 93.6531 192.222 94.1927" stroke="#231F20" stroke-miterlimit="10"/>
<path d="M68.0224 305.928H150.312V461.16H68.0224V305.928Z" fill="#F4B75D"/>
<mask id="mask0_2915_75219" style="mask-type:luminance" maskUnits="userSpaceOnUse" x="68" y="317" width="83" height="145">
<path d="M68.0224 317.49H150.312V461.237H68.0224V317.49Z" fill="white"/>
</mask>
<g mask="url(#mask0_2915_75219)">
<path d="M107.795 330.67C105.181 330.67 103.062 328.53 103.062 325.891C103.062 323.252 105.181 321.113 107.795 321.113C110.408 321.113 112.527 323.252 112.527 325.891C112.527 328.53 110.408 330.67 107.795 330.67Z" fill="black"/>
<path d="M101.689 360.267C99.0752 360.267 96.9562 358.128 96.9562 355.488C96.9562 352.849 99.0752 350.71 101.689 350.71C104.303 350.71 106.422 352.849 106.422 355.488C106.422 358.128 104.303 360.267 101.689 360.267Z" fill="black"/>
<path d="M78.1773 340.227C75.5635 340.227 73.4445 338.088 73.4445 335.449C73.4445 332.809 75.5635 330.67 78.1773 330.67C80.7912 330.67 82.9102 332.809 82.9102 335.449C82.9102 338.088 80.7912 340.227 78.1773 340.227Z" fill="black"/>
<path d="M127.338 349.168C124.724 349.168 122.605 347.029 122.605 344.39C122.605 341.75 124.724 339.611 127.338 339.611C129.951 339.611 132.07 341.75 132.07 344.39C132.07 347.029 129.951 349.168 127.338 349.168Z" fill="black"/>
<path d="M124.361 383.236C121.747 383.236 119.628 381.096 119.628 378.457C119.628 375.818 121.747 373.678 124.361 373.678C126.975 373.678 129.094 375.818 129.094 378.457C129.094 381.096 126.975 383.236 124.361 383.236Z" fill="black"/>
<path d="M147.259 371.212C144.645 371.212 142.527 369.072 142.527 366.433C142.527 363.794 144.645 361.655 147.259 361.655C149.873 361.655 151.992 363.794 151.992 366.433C151.992 369.072 149.873 371.212 147.259 371.212Z" fill="black"/>
<path d="M148.33 404.278C145.716 404.278 143.597 402.138 143.597 399.499C143.597 396.86 145.716 394.72 148.33 394.72C150.944 394.72 153.062 396.86 153.062 399.499C153.062 402.138 150.944 404.278 148.33 404.278Z" fill="black"/>
<path d="M117.873 413.835C115.259 413.835 113.14 411.696 113.14 409.056C113.14 406.417 115.259 404.278 117.873 404.278C120.487 404.278 122.605 406.417 122.605 409.056C122.605 411.696 120.487 413.835 117.873 413.835Z" fill="black"/>
<path d="M92.9117 389.941C90.2979 389.941 88.1789 387.802 88.1789 385.163C88.1789 382.524 90.2979 380.384 92.9117 380.384C95.5256 380.384 97.6445 382.524 97.6445 385.163C97.6445 387.802 95.5256 389.941 92.9117 389.941Z" fill="black"/>
<path d="M86.4977 423.393C83.8838 423.393 81.7648 421.253 81.7648 418.614C81.7648 415.975 83.8838 413.835 86.4977 413.835C89.1115 413.835 91.2305 415.975 91.2305 418.614C91.2305 421.253 89.1115 423.393 86.4977 423.393Z" fill="black"/>
<path d="M83.443 457.845C80.8291 457.845 78.7101 455.706 78.7101 453.067C78.7101 450.428 80.8291 448.288 83.443 448.288C86.0568 448.288 88.1758 450.428 88.1758 453.067C88.1758 455.706 86.0568 457.845 83.443 457.845Z" fill="black"/>
<path d="M106.42 446.207C103.806 446.207 101.687 444.068 101.687 441.428C101.687 438.789 103.806 436.65 106.42 436.65C109.033 436.65 111.152 438.789 111.152 441.428C111.152 444.068 109.033 446.207 106.42 446.207Z" fill="black"/>
<path d="M142.529 434.8C139.915 434.8 137.796 432.66 137.796 430.021C137.796 427.382 139.915 425.242 142.529 425.242C145.143 425.242 147.262 427.382 147.262 430.021C147.262 432.66 145.143 434.8 142.529 434.8Z" fill="black"/>
<path d="M133.826 464.089C131.212 464.089 129.093 461.949 129.093 459.31C129.093 456.671 131.212 454.531 133.826 454.531C136.44 454.531 138.559 456.671 138.559 459.31C138.559 461.949 136.44 464.089 133.826 464.089Z" fill="black"/>
</g>
<path d="M354.971 220.366C352.989 220.366 351.383 218.503 351.383 216.204C351.383 213.905 352.989 212.042 354.971 212.042C356.952 212.042 358.559 213.905 358.559 216.204C358.559 218.503 356.952 220.366 354.971 220.366Z" stroke="#231F20" stroke-miterlimit="10"/>
<path d="M295.588 96.1582C293.607 96.1582 292 94.2948 292 91.9961C292 89.6974 293.607 87.834 295.588 87.834C297.569 87.834 299.176 89.6974 299.176 91.9961C299.176 94.2948 297.569 96.1582 295.588 96.1582Z" stroke="#231F20" stroke-miterlimit="10"/>
<path d="M316.947 50.0206V72.1415L300 50.7143" stroke="#F4B75D" stroke-width="2" stroke-miterlimit="10"/>
<path d="M316.992 1H246V51.1765H316.992V1Z" stroke="#231F20" stroke-width="2" stroke-miterlimit="10"/>
<path d="M294.755 19.1677V35.1953C294.755 35.6335 294.581 36.0538 294.271 36.3636C293.961 36.6735 293.541 36.8476 293.102 36.8476H269.289C268.851 36.8476 268.431 36.6735 268.121 36.3636C267.811 36.0538 267.637 35.6335 267.637 35.1953V19.1016" stroke="#2C2929" stroke-width="2" stroke-miterlimit="10"/>
<path d="M298.273 22.1082L281.381 6.84729L264 22.4618" stroke="#2C2929" stroke-width="2" stroke-linecap="round" stroke-linejoin="round"/>
<path d="M283.837 31.8358L277.975 26.3815V25.9234H279.716C281.591 25.9234 283.124 24.389 283.124 22.5148C283.124 20.639 281.59 19.1063 279.716 19.1063H277.25" stroke="#2C2929" stroke-width="2" stroke-linecap="round" stroke-linejoin="round"/>
<path d="M277.25 19.1043H286.389" stroke="#2C2929" stroke-width="2" stroke-linecap="round" stroke-linejoin="round"/>
<path d="M277.25 22.5177H286.389" stroke="#2C2929" stroke-width="2" stroke-linecap="round" stroke-linejoin="round"/>
<path d="M12.3771 40.6249C10.3956 40.6249 8.78928 38.7614 8.78928 36.4628C8.78928 34.1641 10.3956 32.3007 12.3771 32.3007C14.3586 32.3007 15.9648 34.1641 15.9648 36.4628C15.9648 38.7614 14.3586 40.6249 12.3771 40.6249Z" stroke="#231F20" stroke-miterlimit="10"/>
<path d="M67.588 181.982C65.6065 181.982 64.0002 180.119 64.0002 177.82C64.0002 175.522 65.6065 173.658 67.588 173.658C69.5695 173.658 71.1758 175.522 71.1758 177.82C71.1758 180.119 69.5695 181.982 67.588 181.982Z" stroke="#231F20" stroke-miterlimit="10"/>
<path d="M133.445 83.9418C133.445 83.9418 118.789 97.8155 104.361 78.1611C104.361 78.1611 97.4148 69.8369 100.087 65.2123C100.087 65.2123 109.552 63.0542 103.293 81.4754C103.293 81.4754 92.2239 99.5112 81.1552 87.6415C81.1552 87.6415 57.7964 50.4908 51.8422 59.8941C51.8422 59.8941 45.9644 66.2143 45.9644 75.9259C45.9644 75.9259 41.5369 86.4083 31.1552 77.3904C31.1552 77.3904 20.2392 61.5127 1.00257 71.0701" stroke="#231F20" stroke-width="2" stroke-miterlimit="10"/>
</svg>
