<svg width="589" height="338" viewBox="0 0 589 338" fill="none" xmlns="http://www.w3.org/2000/svg">
<mask id="mask0_2832_29736" style="mask-type:luminance" maskUnits="userSpaceOnUse" x="40" y="-1" width="507" height="270">
<path d="M546.827 -0.00317383H40.2559V268.034H546.827V-0.00317383Z" fill="white"/>
</mask>
<g mask="url(#mask0_2832_29736)">
<path d="M502.753 268.035C500.916 386.14 407.259 481.764 292.553 481.764C176.434 481.764 82.07 384.096 82.07 264.239C82.07 144.381 176.434 46.8597 292.411 46.8597C315.72 46.8597 338.181 50.8014 359.088 58.1009L368.694 26.1291C344.679 17.8077 318.969 13.428 292.27 13.428C158.635 13.428 49.7207 125.986 49.7207 264.239C49.7207 402.491 158.635 515.049 292.411 515.049C425.058 515.049 533.266 404.389 535.102 267.742L502.753 268.035Z" fill="#D5414D"/>
<path d="M463.198 138.458L490.276 118.604C460.752 76.4126 417.57 42.9181 368.834 26.1292L359.229 58.101C401.466 72.7 437.63 101.961 463.198 138.458Z" fill="#42C79B"/>
<path d="M359.228 57.9549L369.116 26.1291C321.228 9.77822 268.819 8.90228 219.801 24.9612L230.113 56.641C272.492 42.9179 317.696 43.7939 359.228 57.9549Z" fill="#DCAF47"/>
<path d="M290.765 46.9525L289.33 13.6567C238.733 14.4309 189.105 31.2976 148.384 62.9606L168.785 89.2999C204.044 62.0768 246.891 47.6421 290.765 46.9525Z" fill="#DCAF47"/>
<path d="M489.472 117.957L463.762 138.103C488.342 173.725 502.892 217.23 502.892 264.239C502.892 265.407 502.892 266.721 502.892 267.888L535.241 267.596C535.241 266.429 535.241 265.261 535.241 264.093C535.241 209.784 518.289 159.126 489.472 117.957Z" fill="#19AC7B"/>
</g>
<path d="M7.69139 224.304C7.70129 224.304 7.72108 224.304 7.73098 224.294C7.75077 224.294 7.78046 224.284 7.81015 224.284C7.77056 224.294 7.73098 224.294 7.69139 224.304ZM8.82941 224.294C8.84921 224.294 8.87889 224.304 8.89869 224.304C8.90858 224.304 8.92837 224.304 8.93827 224.314C8.90858 224.304 8.869 224.294 8.82941 224.294ZM8.82941 224.294C8.84921 224.294 8.87889 224.304 8.89869 224.304C8.90858 224.304 8.92837 224.304 8.93827 224.314C8.90858 224.304 8.869 224.294 8.82941 224.294ZM7.69139 224.304C7.70129 224.304 7.72108 224.304 7.73098 224.294C7.75077 224.294 7.78046 224.284 7.81015 224.284C7.77056 224.294 7.73098 224.294 7.69139 224.304ZM7.69139 224.304C7.70129 224.304 7.72108 224.304 7.73098 224.294C7.75077 224.294 7.78046 224.284 7.81015 224.284C7.77056 224.294 7.73098 224.294 7.69139 224.304ZM8.82941 224.294C8.84921 224.294 8.87889 224.304 8.89869 224.304C8.90858 224.304 8.92837 224.304 8.93827 224.314C8.90858 224.304 8.869 224.294 8.82941 224.294ZM8.90858 224.304C8.91848 224.304 8.93827 224.304 8.94816 224.314C8.90858 224.304 8.869 224.304 8.82941 224.294C8.8591 224.294 8.87889 224.294 8.90858 224.304ZM7.73098 224.294C7.75077 224.294 7.78046 224.284 7.81015 224.284C7.77056 224.294 7.73098 224.294 7.69139 224.304C7.70129 224.304 7.72108 224.304 7.73098 224.294ZM24.1877 218.901C21.5258 216.239 17.983 214.774 14.2127 214.774C10.4424 214.774 6.90963 216.239 4.23775 218.901C1.58568 221.563 0.121094 225.105 0.121094 228.876C0.121094 232.646 1.58568 236.179 4.24765 238.851C6.90963 241.513 10.4523 242.977 14.2226 242.977C17.9929 242.977 21.5356 241.513 24.1976 238.851C26.8596 236.189 28.3242 232.646 28.3242 228.876C28.3242 225.105 26.8497 221.563 24.1877 218.901ZM7.84973 226.689C7.84973 225.571 8.41379 224.64 9.19556 224.353C9.0966 224.334 9.00754 224.314 8.90858 224.304C8.52264 224.254 8.12681 224.254 7.73098 224.304C7.61223 224.324 7.49348 224.343 7.37473 224.373C7.13723 224.432 6.90962 224.304 6.83046 224.066C6.76119 223.849 6.90962 223.581 7.13723 223.522C7.53306 223.423 7.94869 223.384 8.35442 223.384C9.77941 223.393 11.2143 224.007 12.1742 225.076C12.3424 225.264 12.3424 225.511 12.1742 225.699C12.0159 225.867 11.7091 225.867 11.5508 225.699C11.4518 225.59 11.3528 225.491 11.244 225.392C11.432 225.768 11.531 226.214 11.531 226.699C11.531 228.044 10.7096 229.133 9.69035 229.133C8.67108 229.123 7.84973 228.035 7.84973 226.689ZM19.4674 236.288C19.2596 236.367 19.0617 236.337 18.8737 236.268C18.557 236.159 18.2601 236.04 17.9534 235.941C15.806 235.219 13.4508 235.179 11.2836 235.852C10.8482 235.981 10.4226 236.169 9.97733 236.298C9.35389 236.495 8.76014 235.862 8.99764 235.259C9.82889 233.091 12.2435 231.884 14.4799 231.914C16.1721 231.904 17.9633 232.567 19.1013 233.853C19.4674 234.269 19.7742 234.734 19.9622 235.259C20.0909 235.684 19.8731 236.139 19.4674 236.288ZM22.0898 224.066C22.0403 224.304 21.7731 224.423 21.5455 224.373C21.4268 224.343 21.308 224.324 21.1893 224.304C20.7935 224.254 20.3976 224.254 20.0117 224.304C19.8336 224.334 19.6554 224.363 19.4872 224.413C20.1898 224.759 20.6945 225.65 20.6945 226.699C20.6945 228.044 19.8731 229.133 18.8539 229.133C17.8346 229.133 17.0133 228.044 17.0133 226.699C17.0133 226.392 17.0528 226.095 17.1419 225.818C17.0034 225.838 16.8549 225.788 16.756 225.699C16.5778 225.531 16.5976 225.244 16.756 225.076C17.033 224.769 17.3398 224.512 17.6763 224.284C18.8638 223.482 20.3877 223.196 21.783 223.532C22.0205 223.581 22.1393 223.839 22.0898 224.066ZM8.82941 224.294C8.84921 224.294 8.87889 224.304 8.89869 224.304C8.90858 224.304 8.92837 224.304 8.93827 224.314C8.90858 224.304 8.869 224.294 8.82941 224.294ZM7.69139 224.304C7.70129 224.304 7.72108 224.304 7.73098 224.294C7.75077 224.294 7.78046 224.284 7.81015 224.284C7.77056 224.294 7.73098 224.294 7.69139 224.304ZM7.69139 224.304C7.70129 224.304 7.72108 224.304 7.73098 224.294C7.75077 224.294 7.78046 224.284 7.81015 224.284C7.77056 224.294 7.73098 224.294 7.69139 224.304ZM8.82941 224.294C8.84921 224.294 8.87889 224.304 8.89869 224.304C8.90858 224.304 8.92837 224.304 8.93827 224.314C8.90858 224.304 8.869 224.294 8.82941 224.294ZM8.82941 224.294C8.84921 224.294 8.87889 224.304 8.89869 224.304C8.90858 224.304 8.92837 224.304 8.93827 224.314C8.90858 224.304 8.869 224.294 8.82941 224.294ZM7.69139 224.304C7.70129 224.304 7.72108 224.304 7.73098 224.294C7.75077 224.294 7.78046 224.284 7.81015 224.284C7.77056 224.294 7.73098 224.294 7.69139 224.304Z" fill="#D5414D"/>
<path d="M0.151863 259.771C0.202484 258.759 0.55683 257.979 1.2149 257.432C1.8831 256.876 2.75884 256.597 3.84213 256.597C4.58119 256.597 5.21395 256.729 5.74041 256.992C6.26687 257.245 6.66171 257.594 6.92494 258.04C7.1983 258.475 7.33497 258.971 7.33497 259.528C7.33497 260.166 7.16792 260.708 6.83382 261.153C6.50985 261.588 6.12007 261.882 5.66448 262.034V262.095C6.25168 262.277 6.70727 262.601 7.03125 263.067C7.36534 263.532 7.53239 264.13 7.53239 264.859C7.53239 265.466 7.39065 266.008 7.10718 266.483C6.83382 266.959 6.42379 267.334 5.87709 267.607C5.34051 267.871 4.69256 268.002 3.93325 268.002C2.78921 268.002 1.85779 267.714 1.13897 267.137C0.420154 266.559 0.0404967 265.709 0 264.585H2.06533C2.08558 265.081 2.25263 265.481 2.56648 265.785C2.89045 266.079 3.33086 266.225 3.88769 266.225C4.40402 266.225 4.79886 266.084 5.07222 265.8C5.35569 265.507 5.49743 265.132 5.49743 264.676C5.49743 264.069 5.30507 263.634 4.92035 263.37C4.53563 263.107 3.93831 262.975 3.12837 262.975H2.68797V261.229H3.12837C4.56601 261.229 5.28482 260.748 5.28482 259.786C5.28482 259.351 5.15321 259.012 4.88998 258.769C4.63688 258.526 4.26734 258.404 3.78138 258.404C3.30555 258.404 2.93601 258.536 2.67278 258.799C2.41968 259.052 2.27288 259.376 2.23238 259.771H0.151863Z" fill="#2C2929"/>
<path d="M9.21249 262.247C9.21249 260.495 9.52634 259.123 10.154 258.131C10.7919 257.139 11.8448 256.643 13.3128 256.643C14.7808 256.643 15.8286 257.139 16.4563 258.131C17.0942 259.123 17.4131 260.495 17.4131 262.247C17.4131 264.008 17.0942 265.39 16.4563 266.392C15.8286 267.395 14.7808 267.896 13.3128 267.896C11.8448 267.896 10.7919 267.395 10.154 266.392C9.52634 265.39 9.21249 264.008 9.21249 262.247ZM15.3174 262.247C15.3174 261.497 15.2668 260.87 15.1655 260.363C15.0744 259.847 14.882 259.427 14.5884 259.103C14.305 258.779 13.8797 258.617 13.3128 258.617C12.7458 258.617 12.3156 258.779 12.022 259.103C11.7385 259.427 11.5461 259.847 11.4449 260.363C11.3538 260.87 11.3082 261.497 11.3082 262.247C11.3082 263.016 11.3538 263.664 11.4449 264.19C11.536 264.707 11.7284 265.127 12.022 265.451C12.3156 265.765 12.7458 265.922 13.3128 265.922C13.8797 265.922 14.31 265.765 14.6036 265.451C14.8972 265.127 15.0896 264.707 15.1807 264.19C15.2718 263.664 15.3174 263.016 15.3174 262.247Z" fill="#2C2929"/>
<path d="M19.0302 262.247C19.0302 260.495 19.344 259.123 19.9717 258.131C20.6096 257.139 21.6625 256.643 23.1305 256.643C24.5985 256.643 25.6463 257.139 26.274 258.131C26.9119 259.123 27.2308 260.495 27.2308 262.247C27.2308 264.008 26.9119 265.39 26.274 266.392C25.6463 267.395 24.5985 267.896 23.1305 267.896C21.6625 267.896 20.6096 267.395 19.9717 266.392C19.344 265.39 19.0302 264.008 19.0302 262.247ZM25.1351 262.247C25.1351 261.497 25.0844 260.87 24.9832 260.363C24.8921 259.847 24.6997 259.427 24.4061 259.103C24.1226 258.779 23.6974 258.617 23.1305 258.617C22.5635 258.617 22.1332 258.779 21.8396 259.103C21.5562 259.427 21.3638 259.847 21.2626 260.363C21.1714 260.87 21.1259 261.497 21.1259 262.247C21.1259 263.016 21.1714 263.664 21.2626 264.19C21.3537 264.707 21.546 265.127 21.8396 265.451C22.1332 265.765 22.5635 265.922 23.1305 265.922C23.6974 265.922 24.1277 265.765 24.4213 265.451C24.7149 265.127 24.9073 264.707 24.9984 264.19C25.0895 263.664 25.1351 263.016 25.1351 262.247Z" fill="#2C2929"/>
<path d="M563.182 264.813C563.263 265.258 563.445 265.603 563.728 265.846C564.022 266.079 564.412 266.195 564.898 266.195C565.525 266.195 565.981 265.937 566.264 265.42C566.548 264.894 566.69 264.013 566.69 262.778C566.457 263.102 566.128 263.355 565.702 263.537C565.287 263.72 564.837 263.811 564.351 263.811C563.703 263.811 563.116 263.679 562.589 263.416C562.073 263.143 561.663 262.743 561.359 262.216C561.055 261.68 560.904 261.032 560.904 260.272C560.904 259.149 561.238 258.258 561.906 257.6C562.574 256.931 563.485 256.597 564.639 256.597C566.077 256.597 567.089 257.058 567.677 257.979C568.274 258.9 568.573 260.287 568.573 262.14C568.573 263.456 568.456 264.535 568.223 265.375C568.001 266.215 567.611 266.853 567.054 267.288C566.507 267.724 565.758 267.941 564.806 267.941C564.057 267.941 563.419 267.8 562.893 267.516C562.367 267.223 561.962 266.843 561.678 266.377C561.405 265.901 561.248 265.38 561.207 264.813H563.182ZM564.791 262.079C565.318 262.079 565.733 261.917 566.037 261.594C566.34 261.27 566.492 260.834 566.492 260.287C566.492 259.69 566.33 259.23 566.006 258.906C565.692 258.571 565.262 258.404 564.715 258.404C564.169 258.404 563.733 258.577 563.409 258.921C563.095 259.255 562.939 259.7 562.939 260.257C562.939 260.794 563.09 261.234 563.394 261.578C563.708 261.912 564.174 262.079 564.791 262.079Z" fill="#2C2929"/>
<path d="M570.228 262.247C570.228 260.495 570.541 259.123 571.169 258.131C571.807 257.139 572.86 256.643 574.328 256.643C575.796 256.643 576.844 257.139 577.471 258.131C578.109 259.123 578.428 260.495 578.428 262.247C578.428 264.008 578.109 265.39 577.471 266.392C576.844 267.395 575.796 267.896 574.328 267.896C572.86 267.896 571.807 267.395 571.169 266.392C570.541 265.39 570.228 264.008 570.228 262.247ZM576.332 262.247C576.332 261.497 576.282 260.87 576.181 260.363C576.089 259.847 575.897 259.427 575.604 259.103C575.32 258.779 574.895 258.617 574.328 258.617C573.761 258.617 573.331 258.779 573.037 259.103C572.754 259.427 572.561 259.847 572.46 260.363C572.369 260.87 572.323 261.497 572.323 262.247C572.323 263.016 572.369 263.664 572.46 264.19C572.551 264.707 572.743 265.127 573.037 265.451C573.331 265.765 573.761 265.922 574.328 265.922C574.895 265.922 575.325 265.765 575.619 265.451C575.912 265.127 576.105 264.707 576.196 264.19C576.287 263.664 576.332 263.016 576.332 262.247Z" fill="#2C2929"/>
<path d="M580.045 262.247C580.045 260.495 580.359 259.123 580.987 258.131C581.625 257.139 582.678 256.643 584.146 256.643C585.614 256.643 586.661 257.139 587.289 258.131C587.927 259.123 588.246 260.495 588.246 262.247C588.246 264.008 587.927 265.39 587.289 266.392C586.661 267.395 585.614 267.896 584.146 267.896C582.678 267.896 581.625 267.395 580.987 266.392C580.359 265.39 580.045 264.008 580.045 262.247ZM586.15 262.247C586.15 261.497 586.099 260.87 585.998 260.363C585.907 259.847 585.715 259.427 585.421 259.103C585.138 258.779 584.713 258.617 584.146 258.617C583.579 258.617 583.148 258.779 582.855 259.103C582.571 259.427 582.379 259.847 582.278 260.363C582.187 260.87 582.141 261.497 582.141 262.247C582.141 263.016 582.187 263.664 582.278 264.19C582.369 264.707 582.561 265.127 582.855 265.451C583.148 265.765 583.579 265.922 584.146 265.922C584.713 265.922 585.143 265.765 585.436 265.451C585.73 265.127 585.922 264.707 586.013 264.19C586.105 263.664 586.15 263.016 586.15 262.247Z" fill="#2C2929"/>
<path d="M579.121 222.018C579.131 222.018 579.15 222.018 579.16 222.028C579.19 222.028 579.21 222.038 579.24 222.038C579.2 222.028 579.16 222.028 579.121 222.018ZM580.19 222.305C580.199 222.315 580.209 222.315 580.229 222.325C580.249 222.335 580.279 222.344 580.298 222.354C580.259 222.335 580.229 222.315 580.19 222.305ZM580.229 222.315C580.249 222.325 580.279 222.335 580.298 222.344C580.259 222.335 580.229 222.315 580.19 222.305C580.199 222.305 580.209 222.315 580.229 222.315ZM579.16 222.028C579.19 222.028 579.21 222.038 579.24 222.038C579.2 222.028 579.16 222.028 579.121 222.018C579.131 222.028 579.141 222.028 579.16 222.028ZM583.92 218.901C581.258 216.239 577.716 214.774 573.945 214.774C570.175 214.774 566.632 216.239 563.97 218.901C561.308 221.563 559.844 225.105 559.844 228.876C559.844 232.646 561.308 236.179 563.97 238.851C566.632 241.513 570.175 242.977 573.945 242.977C577.716 242.977 581.248 241.513 583.92 238.851C586.582 236.189 588.047 232.646 588.047 228.876C588.047 225.105 586.582 221.563 583.92 218.901ZM567.256 222.899C567.266 222.899 567.266 222.889 567.276 222.889C567.285 222.889 567.285 222.879 567.285 222.879C567.276 222.889 567.256 222.899 567.246 222.909C567.246 222.909 567.246 222.909 567.256 222.899C567.236 222.918 567.216 222.928 567.206 222.938C567.167 222.968 567.127 223.007 567.087 223.037C567.008 223.106 566.939 223.166 566.87 223.245C566.731 223.384 566.593 223.532 566.464 223.69C566.395 223.779 566.266 223.819 566.157 223.819C566.039 223.829 565.93 223.769 565.851 223.69C565.771 223.621 565.722 223.482 565.722 223.384C565.722 223.255 565.771 223.166 565.851 223.077C566.029 222.859 566.227 222.651 566.434 222.453C566.83 222.097 567.276 221.8 567.76 221.582C568.285 221.345 568.819 221.206 569.383 221.147C569.631 221.117 569.809 221.365 569.819 221.592C569.829 221.701 569.769 221.83 569.69 221.899C569.601 221.988 569.502 222.018 569.383 222.028C569.364 222.028 569.344 222.038 569.324 222.038C568.958 222.087 568.602 222.186 568.255 222.325C567.899 222.473 567.572 222.671 567.256 222.899ZM568.631 228.242C568.572 228.143 568.552 227.995 568.582 227.886C568.621 227.757 568.691 227.688 568.799 227.609C568.839 227.579 568.879 227.54 568.928 227.51C568.958 227.49 568.987 227.461 569.027 227.441C569.344 227.193 569.651 226.956 569.947 226.699C569.621 226.431 569.294 226.174 568.958 225.917C568.948 225.907 568.938 225.897 568.928 225.887C568.889 225.857 568.849 225.818 568.799 225.788C568.701 225.709 568.621 225.63 568.582 225.511C568.542 225.392 568.572 225.264 568.631 225.155C568.681 225.056 568.799 224.967 568.908 224.937C569.007 224.907 569.176 224.917 569.265 224.987C569.848 225.432 570.432 225.887 570.986 226.372C571.165 226.53 571.165 226.877 570.986 227.035C570.432 227.52 569.848 227.975 569.265 228.421C569.166 228.49 569.017 228.49 568.908 228.47C568.79 228.421 568.701 228.341 568.631 228.242ZM579.724 232.992C579.536 233.517 579.22 233.982 578.864 234.398C577.725 235.694 575.944 236.357 574.242 236.337C572.006 236.367 569.591 235.16 568.76 232.992C568.532 232.389 569.126 231.755 569.74 231.953C570.175 232.092 570.61 232.27 571.046 232.399C573.213 233.062 575.568 233.032 577.716 232.31C578.022 232.201 578.329 232.082 578.636 231.983C578.824 231.914 579.032 231.894 579.23 231.963C579.655 232.122 579.873 232.577 579.724 232.992ZM579.853 228.242C579.804 228.341 579.685 228.43 579.576 228.46C579.477 228.49 579.309 228.48 579.22 228.411C578.636 227.965 578.052 227.51 577.498 227.025C577.32 226.867 577.32 226.521 577.498 226.362C578.052 225.877 578.636 225.422 579.22 224.977C579.319 224.907 579.467 224.907 579.576 224.927C579.695 224.957 579.794 225.046 579.853 225.145C579.912 225.244 579.932 225.392 579.903 225.501C579.863 225.63 579.794 225.699 579.685 225.778C579.635 225.818 579.576 225.857 579.527 225.897C579.19 226.154 578.864 226.412 578.537 226.679C578.844 226.926 579.15 227.174 579.457 227.421C579.477 227.441 579.497 227.451 579.517 227.471C579.566 227.51 579.625 227.55 579.675 227.589C579.774 227.668 579.853 227.748 579.893 227.866C579.942 227.995 579.912 228.134 579.853 228.242ZM582.634 223.69C582.565 223.769 582.436 223.819 582.327 223.819C582.228 223.819 582.08 223.769 582.02 223.69C581.892 223.532 581.763 223.384 581.615 223.245C581.545 223.176 581.466 223.106 581.397 223.037C581.357 222.998 581.318 222.968 581.268 222.928C581.258 222.918 581.248 222.918 581.248 222.909L581.239 222.899L581.229 222.889C581.229 222.889 581.239 222.889 581.239 222.899C580.922 222.671 580.595 222.473 580.239 222.315C579.893 222.176 579.536 222.077 579.17 222.028C579.15 222.028 579.131 222.018 579.111 222.018C578.992 222.008 578.893 221.968 578.804 221.889C578.715 221.81 578.675 221.691 578.675 221.582C578.666 221.474 578.725 221.345 578.804 221.276C578.873 221.206 579.012 221.137 579.111 221.147C579.428 221.177 579.734 221.236 580.041 221.325C581.06 221.622 581.991 222.246 582.654 223.077C582.733 223.176 582.782 223.265 582.782 223.384C582.772 223.492 582.713 223.601 582.634 223.69ZM580.19 222.305C580.199 222.315 580.209 222.315 580.229 222.325C580.249 222.335 580.279 222.344 580.298 222.354C580.259 222.335 580.229 222.315 580.19 222.305ZM579.121 222.018C579.131 222.018 579.15 222.018 579.16 222.028C579.19 222.028 579.21 222.038 579.24 222.038C579.2 222.028 579.16 222.028 579.121 222.018ZM569.245 222.038C569.274 222.038 569.294 222.028 569.324 222.028C569.334 222.028 569.354 222.028 569.364 222.018C569.324 222.028 569.284 222.028 569.245 222.038ZM568.186 222.344C568.206 222.335 568.235 222.325 568.255 222.315L568.285 222.295C568.255 222.315 568.226 222.335 568.186 222.344Z" fill="#058254"/>
<g filter="url(#filter0_d_2832_29736)">
<rect x="187.779" y="107.389" width="212.608" height="212.608" rx="106.304" fill="white"/>
</g>
<path d="M372.799 172.876L356.159 172.139C355.404 172.105 354.886 172.89 355.214 173.572L362.233 188.148C362.566 188.838 363.518 188.914 363.955 188.285L373.575 174.446C374.025 173.8 373.585 172.911 372.799 172.876Z" fill="#59595A"/>
<rect x="218.984" y="139.681" width="150.194" height="150.194" rx="75.097" fill="#816BFE"/>
<path d="M280.4 193.256L271.212 214.778H266.306L275.564 193.809H263.75V189.664H280.4V193.256Z" fill="white"/>
<path d="M288.893 207.696C289.077 208.709 289.492 209.492 290.137 210.045C290.805 210.575 291.691 210.839 292.797 210.839C294.225 210.839 295.261 210.252 295.906 209.078C296.551 207.88 296.873 205.877 296.873 203.067C296.343 203.804 295.595 204.38 294.628 204.794C293.683 205.209 292.659 205.416 291.553 205.416C290.079 205.416 288.744 205.117 287.546 204.518C286.371 203.896 285.439 202.986 284.748 201.789C284.057 200.568 283.712 199.094 283.712 197.367C283.712 194.811 284.472 192.784 285.991 191.287C287.511 189.767 289.584 189.007 292.21 189.007C295.48 189.007 297.783 190.055 299.118 192.151C300.477 194.247 301.157 197.402 301.157 201.616C301.157 204.61 300.892 207.063 300.362 208.974C299.855 210.886 298.969 212.336 297.702 213.327C296.459 214.317 294.754 214.812 292.59 214.812C290.885 214.812 289.434 214.49 288.237 213.845C287.039 213.177 286.118 212.313 285.473 211.254C284.852 210.172 284.495 208.986 284.402 207.696H288.893ZM292.555 201.478C293.753 201.478 294.697 201.109 295.388 200.372C296.079 199.635 296.424 198.645 296.424 197.402C296.424 196.043 296.055 194.995 295.319 194.258C294.605 193.498 293.626 193.118 292.382 193.118C291.139 193.118 290.148 193.51 289.411 194.293C288.697 195.053 288.341 196.066 288.341 197.333C288.341 198.553 288.686 199.555 289.377 200.338C290.091 201.098 291.15 201.478 292.555 201.478Z" fill="white"/>
<path d="M304.921 201.858C304.921 197.874 305.635 194.753 307.063 192.496C308.514 190.239 310.909 189.111 314.248 189.111C317.587 189.111 319.971 190.239 321.399 192.496C322.85 194.753 323.575 197.874 323.575 201.858C323.575 205.865 322.85 209.009 321.399 211.289C319.971 213.568 317.587 214.708 314.248 214.708C310.909 214.708 308.514 213.568 307.063 211.289C305.635 209.009 304.921 205.865 304.921 201.858ZM318.808 201.858C318.808 200.154 318.693 198.726 318.463 197.574C318.255 196.4 317.818 195.444 317.15 194.707C316.505 193.97 315.538 193.602 314.248 193.602C312.959 193.602 311.98 193.97 311.312 194.707C310.667 195.444 310.229 196.4 309.999 197.574C309.792 198.726 309.688 200.154 309.688 201.858C309.688 203.608 309.792 205.082 309.999 206.28C310.206 207.454 310.644 208.41 311.312 209.147C311.98 209.861 312.959 210.218 314.248 210.218C315.538 210.218 316.517 209.861 317.184 209.147C317.852 208.41 318.29 207.454 318.497 206.28C318.704 205.082 318.808 203.608 318.808 201.858Z" fill="white"/>
<path d="M256.954 231.374C256.683 230.853 256.308 230.463 255.827 230.202C255.347 229.932 254.791 229.797 254.16 229.797C253.469 229.797 252.853 229.952 252.313 230.263C251.772 230.573 251.346 231.014 251.036 231.584C250.736 232.155 250.585 232.816 250.585 233.567C250.585 234.318 250.736 234.984 251.036 235.564C251.346 236.135 251.772 236.576 252.313 236.886C252.853 237.196 253.469 237.352 254.16 237.352C255.091 237.352 255.847 237.091 256.428 236.571C257.009 236.05 257.364 235.344 257.494 234.453H253.574V233.086H259.327V234.423C259.217 235.234 258.926 235.98 258.456 236.661C257.995 237.342 257.389 237.887 256.638 238.298C255.897 238.698 255.071 238.899 254.16 238.899C253.179 238.899 252.283 238.673 251.472 238.223C250.66 237.762 250.015 237.126 249.534 236.315C249.063 235.504 248.828 234.588 248.828 233.567C248.828 232.545 249.063 231.629 249.534 230.818C250.015 230.007 250.66 229.376 251.472 228.926C252.293 228.465 253.189 228.235 254.16 228.235C255.271 228.235 256.258 228.51 257.119 229.061C257.99 229.602 258.621 230.373 259.011 231.374H256.954Z" fill="white"/>
<path d="M264.605 238.944C263.824 238.944 263.118 238.769 262.487 238.418C261.857 238.058 261.361 237.557 261 236.916C260.64 236.265 260.46 235.514 260.46 234.663C260.46 233.822 260.645 233.076 261.015 232.425C261.386 231.774 261.892 231.274 262.532 230.923C263.173 230.573 263.889 230.398 264.68 230.398C265.471 230.398 266.187 230.573 266.828 230.923C267.469 231.274 267.974 231.774 268.345 232.425C268.715 233.076 268.901 233.822 268.901 234.663C268.901 235.504 268.71 236.25 268.33 236.901C267.949 237.552 267.429 238.058 266.768 238.418C266.117 238.769 265.396 238.944 264.605 238.944ZM264.605 237.457C265.046 237.457 265.456 237.352 265.837 237.141C266.227 236.931 266.543 236.616 266.783 236.195C267.023 235.775 267.143 235.264 267.143 234.663C267.143 234.062 267.028 233.557 266.798 233.146C266.568 232.726 266.262 232.41 265.882 232.2C265.501 231.99 265.091 231.885 264.65 231.885C264.21 231.885 263.799 231.99 263.419 232.2C263.048 232.41 262.753 232.726 262.532 233.146C262.312 233.557 262.202 234.062 262.202 234.663C262.202 235.554 262.427 236.245 262.878 236.736C263.338 237.217 263.914 237.457 264.605 237.457Z" fill="white"/>
<path d="M274.183 238.944C273.402 238.944 272.696 238.769 272.065 238.418C271.434 238.058 270.939 237.557 270.578 236.916C270.218 236.265 270.038 235.514 270.038 234.663C270.038 233.822 270.223 233.076 270.593 232.425C270.964 231.774 271.469 231.274 272.11 230.923C272.751 230.573 273.467 230.398 274.258 230.398C275.049 230.398 275.765 230.573 276.406 230.923C277.047 231.274 277.552 231.774 277.923 232.425C278.293 233.076 278.478 233.822 278.478 234.663C278.478 235.504 278.288 236.25 277.908 236.901C277.527 237.552 277.007 238.058 276.346 238.418C275.695 238.769 274.974 238.944 274.183 238.944ZM274.183 237.457C274.623 237.457 275.034 237.352 275.414 237.141C275.805 236.931 276.12 236.616 276.361 236.195C276.601 235.775 276.721 235.264 276.721 234.663C276.721 234.062 276.606 233.557 276.376 233.146C276.145 232.726 275.84 232.41 275.46 232.2C275.079 231.99 274.668 231.885 274.228 231.885C273.787 231.885 273.377 231.99 272.996 232.2C272.626 232.41 272.33 232.726 272.11 233.146C271.89 233.557 271.78 234.062 271.78 234.663C271.78 235.554 272.005 236.245 272.456 236.736C272.916 237.217 273.492 237.457 274.183 237.457Z" fill="white"/>
<path d="M279.6 234.633C279.6 233.802 279.771 233.066 280.111 232.425C280.461 231.785 280.932 231.289 281.523 230.938C282.124 230.578 282.789 230.398 283.52 230.398C284.061 230.398 284.592 230.518 285.112 230.758C285.643 230.988 286.064 231.299 286.374 231.689V227.694H288.101V238.809H286.374V237.562C286.094 237.962 285.703 238.293 285.203 238.553C284.712 238.814 284.146 238.944 283.505 238.944C282.784 238.944 282.124 238.764 281.523 238.403C280.932 238.033 280.461 237.522 280.111 236.871C279.771 236.21 279.6 235.464 279.6 234.633ZM286.374 234.663C286.374 234.092 286.254 233.597 286.014 233.176C285.783 232.756 285.478 232.435 285.097 232.215C284.717 231.995 284.306 231.885 283.866 231.885C283.425 231.885 283.015 231.995 282.634 232.215C282.254 232.425 281.943 232.741 281.703 233.161C281.473 233.572 281.358 234.062 281.358 234.633C281.358 235.204 281.473 235.705 281.703 236.135C281.943 236.566 282.254 236.896 282.634 237.126C283.025 237.347 283.435 237.457 283.866 237.457C284.306 237.457 284.717 237.347 285.097 237.126C285.478 236.906 285.783 236.586 286.014 236.165C286.254 235.735 286.374 235.234 286.374 234.663Z" fill="white"/>
<path d="M297.691 238.914C296.99 238.914 296.359 238.794 295.799 238.553C295.238 238.303 294.797 237.952 294.477 237.502C294.157 237.051 293.996 236.526 293.996 235.925H295.829C295.869 236.375 296.044 236.746 296.354 237.036C296.675 237.327 297.12 237.472 297.691 237.472C298.282 237.472 298.742 237.332 299.073 237.051C299.403 236.761 299.569 236.39 299.569 235.94C299.569 235.589 299.463 235.304 299.253 235.084C299.053 234.863 298.798 234.693 298.487 234.573C298.187 234.453 297.766 234.323 297.226 234.183C296.545 234.002 295.989 233.822 295.558 233.642C295.138 233.452 294.777 233.161 294.477 232.771C294.177 232.38 294.026 231.86 294.026 231.209C294.026 230.608 294.177 230.082 294.477 229.632C294.777 229.181 295.198 228.836 295.739 228.595C296.279 228.355 296.905 228.235 297.616 228.235C298.627 228.235 299.453 228.49 300.094 229.001C300.745 229.502 301.106 230.192 301.176 231.074H299.283C299.253 230.693 299.073 230.368 298.742 230.097C298.412 229.827 297.977 229.692 297.436 229.692C296.945 229.692 296.545 229.817 296.234 230.067C295.924 230.318 295.769 230.678 295.769 231.149C295.769 231.469 295.864 231.734 296.054 231.945C296.254 232.145 296.505 232.305 296.805 232.425C297.105 232.545 297.516 232.676 298.037 232.816C298.727 233.006 299.288 233.196 299.719 233.387C300.159 233.577 300.53 233.872 300.83 234.273C301.141 234.663 301.296 235.189 301.296 235.85C301.296 236.38 301.151 236.881 300.86 237.352C300.58 237.822 300.164 238.203 299.614 238.493C299.073 238.774 298.432 238.914 297.691 238.914Z" fill="white"/>
<path d="M302.745 234.663C302.745 233.812 302.916 233.066 303.256 232.425C303.607 231.774 304.087 231.274 304.698 230.923C305.309 230.573 306.01 230.398 306.801 230.398C307.802 230.398 308.628 230.638 309.279 231.119C309.94 231.589 310.385 232.265 310.616 233.146H308.768C308.618 232.736 308.378 232.415 308.047 232.185C307.717 231.955 307.301 231.84 306.801 231.84C306.1 231.84 305.539 232.09 305.118 232.591C304.708 233.081 304.503 233.772 304.503 234.663C304.503 235.554 304.708 236.25 305.118 236.751C305.539 237.252 306.1 237.502 306.801 237.502C307.792 237.502 308.448 237.066 308.768 236.195H310.616C310.375 237.036 309.925 237.707 309.264 238.208C308.603 238.698 307.782 238.944 306.801 238.944C306.01 238.944 305.309 238.769 304.698 238.418C304.087 238.058 303.607 237.557 303.256 236.916C302.916 236.265 302.745 235.514 302.745 234.663Z" fill="white"/>
<path d="M315.912 238.944C315.131 238.944 314.425 238.769 313.794 238.418C313.163 238.058 312.667 237.557 312.307 236.916C311.946 236.265 311.766 235.514 311.766 234.663C311.766 233.822 311.951 233.076 312.322 232.425C312.692 231.774 313.198 231.274 313.839 230.923C314.48 230.573 315.196 230.398 315.987 230.398C316.778 230.398 317.494 230.573 318.134 230.923C318.775 231.274 319.281 231.774 319.651 232.425C320.022 233.076 320.207 233.822 320.207 234.663C320.207 235.504 320.017 236.25 319.636 236.901C319.256 237.552 318.735 238.058 318.074 238.418C317.423 238.769 316.703 238.944 315.912 238.944ZM315.912 237.457C316.352 237.457 316.763 237.352 317.143 237.141C317.534 236.931 317.849 236.616 318.089 236.195C318.33 235.775 318.45 235.264 318.45 234.663C318.45 234.062 318.335 233.557 318.104 233.146C317.874 232.726 317.569 232.41 317.188 232.2C316.808 231.99 316.397 231.885 315.957 231.885C315.516 231.885 315.105 231.99 314.725 232.2C314.355 232.41 314.059 232.726 313.839 233.146C313.619 233.557 313.508 234.062 313.508 234.663C313.508 235.554 313.734 236.245 314.184 236.736C314.645 237.217 315.221 237.457 315.912 237.457Z" fill="white"/>
<path d="M323.612 231.734C323.862 231.314 324.193 230.988 324.603 230.758C325.024 230.518 325.519 230.398 326.09 230.398V232.17H325.655C324.984 232.17 324.473 232.34 324.123 232.681C323.782 233.021 323.612 233.612 323.612 234.453V238.809H321.9V230.533H323.612V231.734Z" fill="white"/>
<path d="M335.249 234.468C335.249 234.778 335.229 235.059 335.189 235.309H328.866C328.916 235.97 329.161 236.501 329.601 236.901C330.042 237.302 330.583 237.502 331.224 237.502C332.145 237.502 332.796 237.116 333.176 236.345H335.023C334.773 237.106 334.318 237.732 333.657 238.223C333.006 238.703 332.195 238.944 331.224 238.944C330.433 238.944 329.722 238.769 329.091 238.418C328.47 238.058 327.979 237.557 327.619 236.916C327.268 236.265 327.093 235.514 327.093 234.663C327.093 233.812 327.263 233.066 327.604 232.425C327.954 231.774 328.44 231.274 329.061 230.923C329.692 230.573 330.413 230.398 331.224 230.398C332.005 230.398 332.7 230.568 333.311 230.908C333.922 231.249 334.398 231.729 334.738 232.35C335.079 232.961 335.249 233.667 335.249 234.468ZM333.461 233.927C333.451 233.296 333.226 232.791 332.786 232.41C332.345 232.03 331.799 231.84 331.148 231.84C330.558 231.84 330.052 232.03 329.632 232.41C329.211 232.781 328.961 233.286 328.881 233.927H333.461Z" fill="white"/>
<path d="M339.082 228.37L338.886 235.654H337.459L337.264 228.37H339.082ZM338.225 238.914C337.915 238.914 337.655 238.809 337.444 238.598C337.234 238.388 337.129 238.128 337.129 237.817C337.129 237.507 337.234 237.247 337.444 237.036C337.655 236.826 337.915 236.721 338.225 236.721C338.526 236.721 338.781 236.826 338.991 237.036C339.202 237.247 339.307 237.507 339.307 237.817C339.307 238.128 339.202 238.388 338.991 238.598C338.781 238.809 338.526 238.914 338.225 238.914Z" fill="white"/>
<defs>
<filter id="filter0_d_2832_29736" x="173.779" y="97.3889" width="240.607" height="240.608" filterUnits="userSpaceOnUse" color-interpolation-filters="sRGB">
<feFlood flood-opacity="0" result="BackgroundImageFix"/>
<feColorMatrix in="SourceAlpha" type="matrix" values="0 0 0 0 0 0 0 0 0 0 0 0 0 0 0 0 0 0 127 0" result="hardAlpha"/>
<feOffset dy="4"/>
<feGaussianBlur stdDeviation="7"/>
<feComposite in2="hardAlpha" operator="out"/>
<feColorMatrix type="matrix" values="0 0 0 0 0 0 0 0 0 0 0 0 0 0 0 0 0 0 0.12 0"/>
<feBlend mode="normal" in2="BackgroundImageFix" result="effect1_dropShadow_2832_29736"/>
<feBlend mode="normal" in="SourceGraphic" in2="effect1_dropShadow_2832_29736" result="shape"/>
</filter>
</defs>
</svg>
