<svg width="56" height="56" viewBox="0 0 56 56" fill="none" xmlns="http://www.w3.org/2000/svg">
<rect y="-0.00317383" width="56" height="56" rx="10" fill="url(#paint0_linear_2832_29677)"/>
<path d="M37.625 18.3718L18.375 37.6218" stroke="white" stroke-width="2.5" stroke-linecap="round" stroke-linejoin="round"/>
<path d="M20.4375 23.8718C22.336 23.8718 23.875 22.3328 23.875 20.4343C23.875 18.5358 22.336 16.9968 20.4375 16.9968C18.539 16.9968 17 18.5358 17 20.4343C17 22.3328 18.539 23.8718 20.4375 23.8718Z" stroke="white" stroke-width="2.5" stroke-linecap="round" stroke-linejoin="round"/>
<path d="M35.5625 38.9968C37.461 38.9968 39 37.4578 39 35.5593C39 33.6608 37.461 32.1218 35.5625 32.1218C33.664 32.1218 32.125 33.6608 32.125 35.5593C32.125 37.4578 33.664 38.9968 35.5625 38.9968Z" stroke="white" stroke-width="2.5" stroke-linecap="round" stroke-linejoin="round"/>
<defs>
<linearGradient id="paint0_linear_2832_29677" x1="4" y1="-0.00317252" x2="52" y2="55.9968" gradientUnits="userSpaceOnUse">
<stop stop-color="#48F8A4"/>
<stop offset="1" stop-color="#00CF6C"/>
</linearGradient>
</defs>
</svg>
