<svg width="151" height="42" viewBox="0 0 151 42" fill="none" xmlns="http://www.w3.org/2000/svg">
<path d="M21.0067 0C18.2447 0.00290568 15.5105 0.549856 12.96 1.60961C10.4094 2.66937 8.09268 4.22118 6.14198 6.17641C4.19127 8.13163 2.64484 10.452 1.59099 13.0049C0.537142 15.5579 -0.0034742 18.2934 1.67997e-05 21.0554C-0.00606398 26.2607 1.91831 31.2835 5.40099 35.1522C8.88368 39.021 13.6772 41.4608 18.8546 42V26.7011C17.7095 26.2645 16.7239 25.4906 16.0281 24.4817C15.3323 23.4728 14.9591 22.2765 14.958 21.0509C14.958 17.7166 17.6723 15.0022 21.0067 15.0022C24.341 15.0022 27.0554 17.7166 27.0554 21.0509C27.0554 23.628 25.4303 25.8332 23.1543 26.7011V41.9911C28.3317 41.452 33.1252 39.0121 36.6079 35.1434C40.0906 31.2746 42.015 26.2519 42.0089 21.0465C42.0124 15.4716 39.8021 10.1235 35.8638 6.1777C31.9255 2.23193 26.5815 0.0114704 21.0067 0.00442805" fill="#00B5EF"/>
<path d="M70.2 28.14C69.2267 28.14 68.3467 27.9733 67.56 27.64C66.7867 27.3067 66.1733 26.8267 65.72 26.2C65.2667 25.5733 65.0333 24.8333 65.02 23.98H68.02C68.06 24.5533 68.26 25.0067 68.62 25.34C68.9933 25.6733 69.5 25.84 70.14 25.84C70.7933 25.84 71.3067 25.6867 71.68 25.38C72.0533 25.06 72.24 24.6467 72.24 24.14C72.24 23.7267 72.1133 23.3867 71.86 23.12C71.6067 22.8533 71.2867 22.6467 70.9 22.5C70.5267 22.34 70.0067 22.1667 69.34 21.98C68.4333 21.7133 67.6933 21.4533 67.12 21.2C66.56 20.9333 66.0733 20.54 65.66 20.02C65.26 19.4867 65.06 18.78 65.06 17.9C65.06 17.0733 65.2667 16.3533 65.68 15.74C66.0933 15.1267 66.6733 14.66 67.42 14.34C68.1667 14.0067 69.02 13.84 69.98 13.84C71.42 13.84 72.5867 14.1933 73.48 14.9C74.3867 15.5933 74.8867 16.5667 74.98 17.82H71.9C71.8733 17.34 71.6667 16.9467 71.28 16.64C70.9067 16.32 70.4067 16.16 69.78 16.16C69.2333 16.16 68.7933 16.3 68.46 16.58C68.14 16.86 67.98 17.2667 67.98 17.8C67.98 18.1733 68.1 18.4867 68.34 18.74C68.5933 18.98 68.9 19.18 69.26 19.34C69.6333 19.4867 70.1533 19.66 70.82 19.86C71.7267 20.1267 72.4667 20.3933 73.04 20.66C73.6133 20.9267 74.1067 21.3267 74.52 21.86C74.9333 22.3933 75.14 23.0933 75.14 23.96C75.14 24.7067 74.9467 25.4 74.56 26.04C74.1733 26.68 73.6067 27.1933 72.86 27.58C72.1133 27.9533 71.2267 28.14 70.2 28.14ZM85.4875 20.84C86.2742 20.9867 86.9208 21.38 87.4275 22.02C87.9342 22.66 88.1875 23.3933 88.1875 24.22C88.1875 24.9667 88.0008 25.6267 87.6275 26.2C87.2675 26.76 86.7408 27.2 86.0475 27.52C85.3542 27.84 84.5342 28 83.5875 28H77.5675V14.04H83.3275C84.2742 14.04 85.0875 14.1933 85.7675 14.5C86.4608 14.8067 86.9808 15.2333 87.3275 15.78C87.6875 16.3267 87.8675 16.9467 87.8675 17.64C87.8675 18.4533 87.6475 19.1333 87.2075 19.68C86.7808 20.2267 86.2075 20.6133 85.4875 20.84ZM80.3675 19.8H82.9275C83.5942 19.8 84.1075 19.6533 84.4675 19.36C84.8275 19.0533 85.0075 18.62 85.0075 18.06C85.0075 17.5 84.8275 17.0667 84.4675 16.76C84.1075 16.4533 83.5942 16.3 82.9275 16.3H80.3675V19.8ZM83.1875 25.72C83.8675 25.72 84.3942 25.56 84.7675 25.24C85.1542 24.92 85.3475 24.4667 85.3475 23.88C85.3475 23.28 85.1475 22.8133 84.7475 22.48C84.3475 22.1333 83.8075 21.96 83.1275 21.96H80.3675V25.72H83.1875ZM93.2191 14.04V28H90.4191V14.04H93.2191ZM108.671 20.84C109.458 20.9867 110.104 21.38 110.611 22.02C111.118 22.66 111.371 23.3933 111.371 24.22C111.371 24.9667 111.184 25.6267 110.811 26.2C110.451 26.76 109.924 27.2 109.231 27.52C108.538 27.84 107.718 28 106.771 28H100.751V14.04H106.511C107.458 14.04 108.271 14.1933 108.951 14.5C109.644 14.8067 110.164 15.2333 110.511 15.78C110.871 16.3267 111.051 16.9467 111.051 17.64C111.051 18.4533 110.831 19.1333 110.391 19.68C109.964 20.2267 109.391 20.6133 108.671 20.84ZM103.551 19.8H106.111C106.778 19.8 107.291 19.6533 107.651 19.36C108.011 19.0533 108.191 18.62 108.191 18.06C108.191 17.5 108.011 17.0667 107.651 16.76C107.291 16.4533 106.778 16.3 106.111 16.3H103.551V19.8ZM106.371 25.72C107.051 25.72 107.578 25.56 107.951 25.24C108.338 24.92 108.531 24.4667 108.531 23.88C108.531 23.28 108.331 22.8133 107.931 22.48C107.531 22.1333 106.991 21.96 106.311 21.96H103.551V25.72H106.371ZM112.883 22.42C112.883 21.3 113.103 20.3067 113.543 19.44C113.996 18.5733 114.603 17.9067 115.363 17.44C116.136 16.9733 116.996 16.74 117.943 16.74C118.769 16.74 119.489 16.9067 120.103 17.24C120.729 17.5733 121.229 17.9933 121.603 18.5V16.92H124.423V28H121.603V26.38C121.243 26.9 120.743 27.3333 120.103 27.68C119.476 28.0133 118.749 28.18 117.923 28.18C116.989 28.18 116.136 27.94 115.363 27.46C114.603 26.98 113.996 26.3067 113.543 25.44C113.103 24.56 112.883 23.5533 112.883 22.42ZM121.603 22.46C121.603 21.78 121.469 21.2 121.203 20.72C120.936 20.2267 120.576 19.8533 120.123 19.6C119.669 19.3333 119.183 19.2 118.663 19.2C118.143 19.2 117.663 19.3267 117.223 19.58C116.783 19.8333 116.423 20.2067 116.143 20.7C115.876 21.18 115.743 21.7533 115.743 22.42C115.743 23.0867 115.876 23.6733 116.143 24.18C116.423 24.6733 116.783 25.0533 117.223 25.32C117.676 25.5867 118.156 25.72 118.663 25.72C119.183 25.72 119.669 25.5933 120.123 25.34C120.576 25.0733 120.936 24.7 121.203 24.22C121.469 23.7267 121.603 23.14 121.603 22.46ZM133.297 16.76C134.617 16.76 135.684 17.18 136.497 18.02C137.311 18.8467 137.717 20.0067 137.717 21.5V28H134.917V21.88C134.917 21 134.697 20.3267 134.257 19.86C133.817 19.38 133.217 19.14 132.457 19.14C131.684 19.14 131.071 19.38 130.617 19.86C130.177 20.3267 129.957 21 129.957 21.88V28H127.157V16.92H129.957V18.3C130.331 17.82 130.804 17.4467 131.377 17.18C131.964 16.9 132.604 16.76 133.297 16.76ZM146.94 28L143.18 23.28V28H140.38V13.2H143.18V21.62L146.9 16.92H150.54L145.66 22.48L150.58 28H146.94Z" fill="black"/>
</svg>
