<svg width="56" height="56" viewBox="0 0 56 56" fill="none" xmlns="http://www.w3.org/2000/svg">
<rect y="-0.00317383" width="56" height="56" rx="10" fill="url(#paint0_linear_2832_29645)"/>
<path d="M28.4987 40.7052C36.1501 40.7052 42.3529 34.5024 42.3529 26.851C42.3529 19.1995 36.1501 12.9968 28.4987 12.9968C20.8473 12.9968 14.6445 19.1995 14.6445 26.851" stroke="white" stroke-width="2" stroke-linecap="round"/>
<path d="M11 25.3908C11 23.7799 12.3058 22.4741 13.9167 22.4741H15.375C16.1804 22.4741 16.8333 23.127 16.8333 23.9324V29.7658C16.8333 30.5712 16.1804 31.2241 15.375 31.2241H13.9167C12.3058 31.2241 11 29.9183 11 28.3074V25.3908Z" fill="#1873F5"/>
<path d="M40.1667 23.9324C40.1667 23.127 40.8196 22.4741 41.625 22.4741H43.0833C44.6942 22.4741 46 23.7799 46 25.3908V28.3074C46 29.9183 44.6942 31.2241 43.0833 31.2241H41.625C40.8196 31.2241 40.1667 30.5712 40.1667 29.7658V23.9324Z" fill="#1873F5"/>
<path d="M13.9167 23.4741H15.375V21.4741H13.9167V23.4741ZM15.8333 23.9324V29.7658H17.8333V23.9324H15.8333ZM15.375 30.2241H13.9167V32.2241H15.375V30.2241ZM12 28.3074V25.3908H10V28.3074H12ZM13.9167 30.2241C12.8581 30.2241 12 29.366 12 28.3074H10C10 30.4705 11.7536 32.2241 13.9167 32.2241V30.2241ZM15.8333 29.7658C15.8333 30.0189 15.6281 30.2241 15.375 30.2241V32.2241C16.7327 32.2241 17.8333 31.1235 17.8333 29.7658H15.8333ZM15.375 23.4741C15.6281 23.4741 15.8333 23.6793 15.8333 23.9324H17.8333C17.8333 22.5747 16.7327 21.4741 15.375 21.4741V23.4741ZM13.9167 21.4741C11.7536 21.4741 10 23.2276 10 25.3908H12C12 24.3322 12.8581 23.4741 13.9167 23.4741V21.4741ZM41.625 23.4741H43.0833V21.4741H41.625V23.4741ZM45 25.3908V28.3074H47V25.3908H45ZM43.0833 30.2241H41.625V32.2241H43.0833V30.2241ZM41.1667 29.7658V23.9324H39.1667V29.7658H41.1667ZM41.625 30.2241C41.3719 30.2241 41.1667 30.0189 41.1667 29.7658H39.1667C39.1667 31.1235 40.2673 32.2241 41.625 32.2241V30.2241ZM45 28.3074C45 29.366 44.1419 30.2241 43.0833 30.2241V32.2241C45.2464 32.2241 47 30.4705 47 28.3074H45ZM43.0833 23.4741C44.1419 23.4741 45 24.3322 45 25.3908H47C47 23.2276 45.2464 21.4741 43.0833 21.4741V23.4741ZM41.625 21.4741C40.2673 21.4741 39.1667 22.5747 39.1667 23.9324H41.1667C41.1667 23.6793 41.3719 23.4741 41.625 23.4741V21.4741Z" fill="white"/>
<ellipse cx="29.3125" cy="41.5196" rx="3" ry="3" fill="#4591FF" stroke="white" stroke-width="2"/>
<defs>
<linearGradient id="paint0_linear_2832_29645" x1="4" y1="-0.00317252" x2="52" y2="55.9968" gradientUnits="userSpaceOnUse">
<stop stop-color="#4591FF"/>
<stop offset="1" stop-color="#0062EF"/>
</linearGradient>
</defs>
</svg>
