<svg width="154" height="192" viewBox="0 0 154 192" fill="none" xmlns="http://www.w3.org/2000/svg">
<path d="M47.5998 79.4701C43.5992 80.0744 25.738 85.3225 25.738 85.3225C25.738 85.3225 13.5471 60.736 11.5625 52.498" stroke="#F4B75D" stroke-width="12" stroke-miterlimit="10"/>
<path d="M14.2384 54.7566L10.5843 55.9016L9.32422 51.8304L11.1828 51.2578C12.1908 50.9398 13.2304 51.5123 13.5454 52.5301L14.2384 54.7566Z" fill="#F4B75D"/>
<path d="M85.4827 103.5H38.8516V191H85.4827V103.5Z" fill="white" stroke="#231F20" stroke-miterlimit="10"/>
<path d="M16.7879 131.633L12.1257 140.92C12.1257 140.92 0.155231 135.45 0.0292267 135.45C-0.096778 135.45 -0.0652768 133.382 5.57343 132.619C5.57343 132.619 7.432 132.364 7.81002 131.856C7.81002 131.856 10.7396 128.516 10.7396 128.071L16.7879 131.633Z" fill="black"/>
<path d="M47.2481 133.16L51.9732 142.702C51.9732 142.702 40.1918 149.286 40.0973 149.413C40.0343 149.509 38.3647 148.204 41.1683 143.084C41.1683 143.084 42.0819 141.398 41.9244 140.762C41.9244 140.762 40.9793 136.277 40.6328 136.023L47.2481 133.16Z" fill="black"/>
<path d="M66.5 73.478L58.2467 74.3034L45.0414 73.2163V90.3973H66.5V73.478Z" fill="white"/>
<path d="M46.2719 82.4283L46.1774 82.3011C46.1774 82.3011 43.2477 79.5021 41.7357 79.3749C40.2551 79.2476 38.4281 79.6929 38.3021 79.7566C38.1761 79.8202 36.412 82.2375 36.412 82.2375C35.908 82.0784 37.042 79.2795 37.042 79.2795C36.538 80.838 35.0889 82.3329 35.0889 82.3329C34.8054 81.2833 35.9395 78.3253 35.9395 78.3253C36.1915 78.198 33.4824 81.665 33.4824 81.665C33.0099 80.6471 35.1519 77.3711 35.1519 77.3711L33.6399 79.4703C32.2538 81.156 32.2853 79.6929 32.2853 79.6929C32.2223 79.2795 35.53 75.24 35.53 75.24C32.8839 73.3634 28.6942 73.109 28.6942 73.109L26.6151 74.6039C25.7961 74.3494 27.9067 71.9957 27.9067 71.9957L25.2921 74.6039C24.5676 73.7451 27.3397 70.6917 27.3397 70.6917C25.1661 73.3634 24.095 73.1726 24.095 73.1726C23.591 72.6637 26.6466 69.642 26.6466 69.642L24.5991 71.455L23.024 71.2006C29.7652 64.1395 37.105 68.3062 37.105 68.3062L58.2108 78.7387L60.0064 75.5581L66.8421 80.6471C60.5419 94.324 46.2719 82.4601 46.2719 82.4283C24.4731 84.5275 22.5515 94.5466 22.5515 94.5466L6.29688 126.576L20.7559 134.369L28.0642 120.596L28.4422 120.024L36.5695 137.867L51.312 131.506L39.5306 104.184L74.3709 103.802C74.3709 103.802 87.9479 99.1586 84.4513 81.5059C80.9547 63.8532 68.3857 81.1879 68.3857 81.1879" fill="white"/>
<path d="M46.2719 82.4283L46.1774 82.3011C46.1774 82.3011 43.2477 79.5021 41.7357 79.3749C40.2551 79.2476 38.4281 79.6929 38.3021 79.7566C38.1761 79.8202 36.412 82.2375 36.412 82.2375C35.908 82.0784 37.042 79.2795 37.042 79.2795C36.538 80.838 35.0889 82.3329 35.0889 82.3329C34.8054 81.2833 35.9395 78.3253 35.9395 78.3253C36.1915 78.198 33.4824 81.665 33.4824 81.665C33.0099 80.6471 35.1519 77.3711 35.1519 77.3711L33.6399 79.4703C32.2538 81.156 32.2853 79.6929 32.2853 79.6929C32.2223 79.2795 35.53 75.24 35.53 75.24C32.8839 73.3634 28.6942 73.109 28.6942 73.109L26.6151 74.6039C25.7961 74.3494 27.9067 71.9957 27.9067 71.9957L25.2921 74.6039C24.5676 73.7451 27.3397 70.6917 27.3397 70.6917C25.1661 73.3634 24.095 73.1726 24.095 73.1726C23.591 72.6637 26.6466 69.642 26.6466 69.642L24.5991 71.455L23.024 71.2006C29.7652 64.1395 37.105 68.3062 37.105 68.3062L58.2108 78.7387L60.0064 75.5581L66.8421 80.6471C60.5419 94.324 46.2719 82.4601 46.2719 82.4283ZM46.2719 82.4283C24.4731 84.5275 22.5515 94.5466 22.5515 94.5466L6.29688 126.576L20.7559 134.369L28.0642 120.596L28.4422 120.024L36.5695 137.867L51.3121 131.506L39.5306 104.184L74.3709 103.802C74.3709 103.802 87.9479 99.1586 84.4513 81.5059C80.9547 63.8532 68.3857 81.1879 68.3857 81.1879" stroke="#231F20" stroke-miterlimit="10"/>
<path d="M35.625 75.2715C35.625 75.2715 40.9802 77.9114 42.1772 79.5018" stroke="#231F20" stroke-miterlimit="10"/>
<path d="M47.3086 73.2917C47.3086 73.2917 58.1149 74.1903 58.8394 74.4447L59.9105 75.558" stroke="#231F20" stroke-miterlimit="10"/>
<path d="M61.27 36.2133L66.4047 32.7463L73.8389 35.6407L76.7685 40.5708L79.6982 48.5224L77.6506 51.2578L71.0668 53.6751L68.3892 47.1547C68.3892 47.1547 64.4516 48.5542 61.711 41.5568C61.711 41.5568 60.6084 36.6586 61.27 36.2133Z" fill="white"/>
<path d="M66.8411 81.1878L91.5065 81.6649C91.5065 81.6649 88.7974 60.0364 81.3316 52.9753H98.7203C98.7203 52.9753 99.7913 48.1725 95.6017 46.3277C95.6017 46.3277 91.6325 46.1051 89.8055 40.5071C89.8055 40.5071 89.963 35.7997 82.8437 35.8633C82.8437 35.8633 80.0401 30.9969 79.0636 30.0427C79.0636 30.0427 79.2211 29.343 80.4496 29.661C80.4496 29.661 85.1118 27.7526 81.6151 24.1903C81.6151 24.1903 78.717 21.6776 75.5354 25.2399C75.5354 25.2399 74.8424 26.5758 75.3779 27.7526C75.3779 27.7526 71.5033 25.8124 66.9986 27.5618C66.9986 27.5618 60.7299 29.9155 60.3519 37.1038L61.6749 37.231C61.6749 37.231 64.006 35.9269 65.014 34.3684C65.014 34.3684 66.9041 38.1216 68.8887 38.5669L71.7868 38.5351C71.7868 38.5351 72.1018 35.7361 74.1179 37.6763C74.1179 37.6763 75.6614 40.5389 73.0468 42.002L78.654 49.8583L69.9282 52.9435L69.4557 58.5415C69.4557 58.5415 59.4825 71.2085 58.8713 74.413C58.8398 74.413 61.7521 76.6252 66.8411 81.1878Z" fill="black"/>
<path d="M60.8906 36.8811C60.8906 36.8811 61.4576 46.2959 66.8128 47.1865L68.6084 47.3773L70.719 53.1025" stroke="#231F20" stroke-miterlimit="10"/>
<path d="M68.7031 47.3773C68.7031 47.3773 69.8372 47.3455 69.8057 48.5541C69.8057 48.5541 69.9632 47.2501 70.8452 46.932L75.0979 44.6101" stroke="#231F20" stroke-miterlimit="10"/>
<path d="M66.4023 43.1787C66.4023 43.1787 67.9774 43.1151 68.3869 41.811" stroke="#231F20" stroke-miterlimit="10"/>
<path d="M72.2617 40.157C72.2617 40.157 72.6082 39.2346 73.8368 39.4573" stroke="#231F20" stroke-miterlimit="10"/>
<path d="M125.091 126.834H91.1328V190.892H125.091V126.834Z" fill="#F4B75D"/>
<mask id="mask0_2853_2553" style="mask-type:luminance" maskUnits="userSpaceOnUse" x="91" y="131" width="35" height="60">
<path d="M125.095 131.605H91.1367V190.925H125.095V131.605Z" fill="white"/>
</mask>
<g mask="url(#mask0_2853_2553)">
<path d="M108.68 137.044C109.758 137.044 110.633 136.161 110.633 135.072C110.633 133.983 109.758 133.1 108.68 133.1C107.601 133.1 106.727 133.983 106.727 135.072C106.727 136.161 107.601 137.044 108.68 137.044Z" fill="black"/>
<path d="M111.199 149.258C112.278 149.258 113.152 148.375 113.152 147.286C113.152 146.197 112.278 145.314 111.199 145.314C110.121 145.314 109.246 146.197 109.246 147.286C109.246 148.375 110.121 149.258 111.199 149.258Z" fill="black"/>
<path d="M120.902 140.988C121.981 140.988 122.855 140.105 122.855 139.016C122.855 137.927 121.981 137.044 120.902 137.044C119.824 137.044 118.949 137.927 118.949 139.016C118.949 140.105 119.824 140.988 120.902 140.988Z" fill="black"/>
<path d="M100.617 144.677C101.696 144.677 102.57 143.794 102.57 142.705C102.57 141.616 101.696 140.733 100.617 140.733C99.5385 140.733 98.6641 141.616 98.6641 142.705C98.6641 143.794 99.5385 144.677 100.617 144.677Z" fill="black"/>
<path d="M101.844 158.736C102.922 158.736 103.797 157.853 103.797 156.764C103.797 155.674 102.922 154.792 101.844 154.792C100.765 154.792 99.8906 155.674 99.8906 156.764C99.8906 157.853 100.765 158.736 101.844 158.736Z" fill="black"/>
<path d="M92.3945 153.774C93.4731 153.774 94.3475 152.891 94.3475 151.802C94.3475 150.713 93.4731 149.83 92.3945 149.83C91.3158 149.83 90.4414 150.713 90.4414 151.802C90.4414 152.891 91.3158 153.774 92.3945 153.774Z" fill="black"/>
<path d="M91.9531 167.419C93.0317 167.419 93.9061 166.536 93.9061 165.447C93.9061 164.358 93.0317 163.475 91.9531 163.475C90.8744 163.475 90 164.358 90 165.447C90 166.536 90.8744 167.419 91.9531 167.419Z" fill="black"/>
<path d="M104.523 171.363C105.602 171.363 106.476 170.48 106.476 169.391C106.476 168.302 105.602 167.419 104.523 167.419C103.445 167.419 102.57 168.302 102.57 169.391C102.57 170.48 103.445 171.363 104.523 171.363Z" fill="black"/>
<path d="M114.824 161.503C115.903 161.503 116.777 160.62 116.777 159.531C116.777 158.441 115.903 157.559 114.824 157.559C113.746 157.559 112.871 158.441 112.871 159.531C112.871 160.62 113.746 161.503 114.824 161.503Z" fill="black"/>
<path d="M117.469 175.307C118.547 175.307 119.422 174.424 119.422 173.335C119.422 172.246 118.547 171.363 117.469 171.363C116.39 171.363 115.516 172.246 115.516 173.335C115.516 174.424 116.39 175.307 117.469 175.307Z" fill="black"/>
<path d="M118.73 189.525C119.809 189.525 120.683 188.642 120.683 187.553C120.683 186.463 119.809 185.581 118.73 185.581C117.652 185.581 116.777 186.463 116.777 187.553C116.777 188.642 117.652 189.525 118.73 189.525Z" fill="black"/>
<path d="M109.25 184.722C110.329 184.722 111.203 183.839 111.203 182.75C111.203 181.661 110.329 180.778 109.25 180.778C108.171 180.778 107.297 181.661 107.297 182.75C107.297 183.839 108.171 184.722 109.25 184.722Z" fill="black"/>
<path d="M94.3476 180.014C95.4263 180.014 96.3007 179.131 96.3007 178.042C96.3007 176.953 95.4263 176.07 94.3476 176.07C93.2689 176.07 92.3945 176.953 92.3945 178.042C92.3945 179.131 93.2689 180.014 94.3476 180.014Z" fill="black"/>
<path d="M97.9374 192.101C99.0161 192.101 99.8905 191.218 99.8905 190.129C99.8905 189.04 99.0161 188.157 97.9374 188.157C96.8588 188.157 95.9844 189.04 95.9844 190.129C95.9844 191.218 96.8588 192.101 97.9374 192.101Z" fill="black"/>
</g>
<path d="M6.67587 91.525C7.49356 91.525 8.15642 90.756 8.15642 89.8074C8.15642 88.8588 7.49356 88.0898 6.67587 88.0898C5.85818 88.0898 5.19531 88.8588 5.19531 89.8074C5.19531 90.756 5.85818 91.525 6.67587 91.525Z" stroke="#231F20" stroke-miterlimit="10"/>
<path d="M31.1798 40.2681C31.9975 40.2681 32.6603 39.4992 32.6603 38.5506C32.6603 37.602 31.9975 36.833 31.1798 36.833C30.3621 36.833 29.6992 37.602 29.6992 38.5506C29.6992 39.4992 30.3621 40.2681 31.1798 40.2681Z" stroke="#231F20" stroke-miterlimit="10"/>
<path d="M22.37 21.2288V30.3573L29.3633 21.515" stroke="#F4B75D" stroke-width="2" stroke-miterlimit="10"/>
<path d="M22.3484 1H51.6445V21.7061H22.3484V1Z" stroke="#231F20" stroke-miterlimit="10"/>
<path d="M31.5281 8.49724V15.1113C31.5281 15.2921 31.5999 15.4656 31.7278 15.5934C31.8556 15.7213 32.0291 15.7931 32.2099 15.7931H42.0369C42.2177 15.7931 42.3912 15.7213 42.519 15.5934C42.6469 15.4656 42.7188 15.2921 42.7188 15.1113V8.46997" stroke="#2C2929" stroke-miterlimit="10"/>
<path d="M30.0756 9.71074L37.0463 3.41309L44.2188 9.85666" stroke="#2C2929" stroke-linecap="round" stroke-linejoin="round"/>
<path d="M38.2183 13.5977L35.7991 11.3469V11.1579H36.5175C37.2916 11.1579 37.924 10.5247 37.924 9.75131C37.924 8.97721 37.2909 8.34473 36.5175 8.34473H35.5" stroke="#2C2929" stroke-linecap="round" stroke-linejoin="round"/>
<path d="M35.5 8.34374H39.2715" stroke="#2C2929" stroke-linecap="round" stroke-linejoin="round"/>
<path d="M148.055 17.3519C148.872 17.3519 149.535 16.5829 149.535 15.6343C149.535 14.6857 148.872 13.9167 148.055 13.9167C147.237 13.9167 146.574 14.6857 146.574 15.6343C146.574 16.5829 147.237 17.3519 148.055 17.3519Z" stroke="#231F20" stroke-miterlimit="10"/>
<path d="M125.27 75.6851C126.087 75.6851 126.75 74.9161 126.75 73.9676C126.75 73.019 126.087 72.25 125.27 72.25C124.452 72.25 123.789 73.019 123.789 73.9676C123.789 74.9161 124.452 75.6851 125.27 75.6851Z" stroke="#231F20" stroke-miterlimit="10"/>
<path d="M98.0938 35.2271C98.0938 35.2271 104.142 40.9523 110.096 32.8416C110.096 32.8416 112.962 29.4065 111.86 27.4981C111.86 27.4981 107.954 26.6075 110.537 34.2093C110.537 34.2093 115.104 41.6521 119.672 36.7539C119.672 36.7539 129.311 21.4231 131.769 25.3035C131.769 25.3035 134.194 27.9116 134.194 31.9193C134.194 31.9193 136.021 36.245 140.305 32.5236C140.305 32.5236 144.81 25.9714 152.748 29.9154" stroke="#231F20" stroke-width="2" stroke-miterlimit="10"/>
</svg>
