<svg width="100" height="41" viewBox="0 0 85 141" fill="none" xmlns="http://www.w3.org/2000/svg">
<path d="M0.307412 70.4616C0.307412 52.034 0.257337 33.6064 0.307412 15.1787C0.307412 7.71756 5.06454 2.05908 12.3254 0.606909C13.2768 0.456684 14.2283 0.406609 15.1296 0.406609C33.2568 0.406609 51.3839 0.406609 69.461 0.406609C77.9237 0.406609 84.2832 6.76614 84.2832 15.2288C84.2832 52.084 84.2832 88.9393 84.2832 125.794C84.2832 134.257 77.9237 140.567 69.461 140.567C51.3339 140.567 33.2568 140.567 15.1296 140.567C6.76709 140.567 0.357487 134.307 0.357487 125.945C0.257337 107.467 0.307412 88.9893 0.307412 70.4616ZM20.5878 5.66449C18.9854 5.66449 17.5833 5.66449 16.1311 5.66449C9.37099 5.66449 5.56529 9.47019 5.56529 16.1802C5.56529 52.3344 5.56529 88.4886 5.56529 124.643C5.56529 131.653 9.32092 135.359 16.3314 135.359C33.6073 135.359 50.9333 135.359 68.2092 135.359C75.3198 135.359 79.0254 131.653 79.0254 124.493C79.0254 96.2502 79.0254 68.058 79.0254 39.8157C79.0254 31.7035 79.0754 23.5913 79.0254 15.4792C79.0254 11.373 77.1726 8.21831 73.417 6.51576C70.4125 5.16374 67.2076 5.71456 64.0028 5.71456C64.0028 6.96644 64.0028 7.96794 64.0028 8.96944C63.9027 13.5263 60.5977 16.8813 56.0409 16.9314C46.777 16.9814 37.5632 16.9814 28.2994 16.9314C23.9929 16.9314 20.6379 13.5263 20.5377 9.21981C20.5878 8.01801 20.5878 6.91636 20.5878 5.66449ZM25.8457 5.71456C25.8457 6.56584 25.8457 7.31696 25.8457 8.06809C25.8457 10.7721 26.747 11.6234 29.4511 11.6735C31.6544 11.6735 33.8076 11.6735 36.0109 11.6735C42.5207 11.6735 48.9803 11.6735 55.4901 11.6735C57.7435 11.6735 58.6949 10.7221 58.795 8.51876C58.8451 7.61741 58.795 6.71606 58.795 5.71456C47.7285 5.71456 36.9123 5.71456 25.8457 5.71456Z" fill="#6147FF"/>
<path d="M42.3199 128.148C37.1622 128.148 31.9544 128.148 26.7966 128.148C25.3444 128.148 24.1927 127.697 23.692 126.245C23.1411 124.693 24.0926 123.191 25.745 122.89C26.396 122.79 27.0971 122.79 27.7981 122.79C37.4626 122.79 47.1271 122.79 56.8416 122.79C57.2923 122.79 57.6929 122.79 58.1436 122.79C60.0965 122.89 61.098 123.842 61.098 125.444C61.098 126.996 59.9463 128.098 58.0935 128.098C52.8356 128.198 47.5778 128.148 42.3199 128.148Z" fill="#6147FF"/>
</svg>
