<svg width="164" height="42" viewBox="0 0 164 42" fill="none" xmlns="http://www.w3.org/2000/svg">
<path d="M75.94 25.34H70.38L69.46 28H66.52L71.54 14.02H74.8L79.82 28H76.86L75.94 25.34ZM75.18 23.1L73.16 17.26L71.14 23.1H75.18ZM87.8164 28L85.5364 24.56L83.5164 28H80.5164L84.1364 22.44L80.4764 16.92H83.6364L85.8964 20.34L87.9364 16.92H90.9364L87.2964 22.44L90.9764 28H87.8164ZM93.9172 15.6C93.4239 15.6 93.0105 15.4467 92.6772 15.14C92.3572 14.82 92.1972 14.4267 92.1972 13.96C92.1972 13.4933 92.3572 13.1067 92.6772 12.8C93.0105 12.48 93.4239 12.32 93.9172 12.32C94.4105 12.32 94.8172 12.48 95.1372 12.8C95.4705 13.1067 95.6372 13.4933 95.6372 13.96C95.6372 14.4267 95.4705 14.82 95.1372 15.14C94.8172 15.4467 94.4105 15.6 93.9172 15.6ZM95.2972 16.92V28H92.4972V16.92H95.2972ZM102.304 28.18C101.397 28.18 100.584 28.02 99.8636 27.7C99.1436 27.3667 98.5703 26.92 98.1436 26.36C97.7303 25.8 97.5036 25.18 97.4636 24.5H100.284C100.337 24.9267 100.544 25.28 100.904 25.56C101.277 25.84 101.737 25.98 102.284 25.98C102.817 25.98 103.23 25.8733 103.524 25.66C103.83 25.4467 103.984 25.1733 103.984 24.84C103.984 24.48 103.797 24.2133 103.424 24.04C103.064 23.8533 102.484 23.6533 101.684 23.44C100.857 23.24 100.177 23.0333 99.6436 22.82C99.1236 22.6067 98.6703 22.28 98.2836 21.84C97.9103 21.4 97.7236 20.8067 97.7236 20.06C97.7236 19.4467 97.8969 18.8867 98.2436 18.38C98.6036 17.8733 99.1103 17.4733 99.7636 17.18C100.43 16.8867 101.21 16.74 102.104 16.74C103.424 16.74 104.477 17.0733 105.264 17.74C106.05 18.3933 106.484 19.28 106.564 20.4H103.884C103.844 19.96 103.657 19.6133 103.324 19.36C103.004 19.0933 102.57 18.96 102.024 18.96C101.517 18.96 101.124 19.0533 100.844 19.24C100.577 19.4267 100.444 19.6867 100.444 20.02C100.444 20.3933 100.63 20.68 101.004 20.88C101.377 21.0667 101.957 21.26 102.744 21.46C103.544 21.66 104.204 21.8667 104.724 22.08C105.244 22.2933 105.69 22.6267 106.064 23.08C106.45 23.52 106.65 24.1067 106.664 24.84C106.664 25.48 106.484 26.0533 106.124 26.56C105.777 27.0667 105.27 27.4667 104.604 27.76C103.95 28.04 103.184 28.18 102.304 28.18ZM121.648 20.84C122.434 20.9867 123.081 21.38 123.588 22.02C124.094 22.66 124.348 23.3933 124.348 24.22C124.348 24.9667 124.161 25.6267 123.788 26.2C123.428 26.76 122.901 27.2 122.208 27.52C121.514 27.84 120.694 28 119.748 28H113.728V14.04H119.488C120.434 14.04 121.248 14.1933 121.928 14.5C122.621 14.8067 123.141 15.2333 123.488 15.78C123.848 16.3267 124.028 16.9467 124.028 17.64C124.028 18.4533 123.808 19.1333 123.368 19.68C122.941 20.2267 122.368 20.6133 121.648 20.84ZM116.528 19.8H119.088C119.754 19.8 120.268 19.6533 120.628 19.36C120.988 19.0533 121.168 18.62 121.168 18.06C121.168 17.5 120.988 17.0667 120.628 16.76C120.268 16.4533 119.754 16.3 119.088 16.3H116.528V19.8ZM119.348 25.72C120.028 25.72 120.554 25.56 120.928 25.24C121.314 24.92 121.508 24.4667 121.508 23.88C121.508 23.28 121.308 22.8133 120.908 22.48C120.508 22.1333 119.968 21.96 119.288 21.96H116.528V25.72H119.348ZM125.859 22.42C125.859 21.3 126.079 20.3067 126.519 19.44C126.973 18.5733 127.579 17.9067 128.339 17.44C129.113 16.9733 129.973 16.74 130.919 16.74C131.746 16.74 132.466 16.9067 133.079 17.24C133.706 17.5733 134.206 17.9933 134.579 18.5V16.92H137.399V28H134.579V26.38C134.219 26.9 133.719 27.3333 133.079 27.68C132.453 28.0133 131.726 28.18 130.899 28.18C129.966 28.18 129.113 27.94 128.339 27.46C127.579 26.98 126.973 26.3067 126.519 25.44C126.079 24.56 125.859 23.5533 125.859 22.42ZM134.579 22.46C134.579 21.78 134.446 21.2 134.179 20.72C133.913 20.2267 133.553 19.8533 133.099 19.6C132.646 19.3333 132.159 19.2 131.639 19.2C131.119 19.2 130.639 19.3267 130.199 19.58C129.759 19.8333 129.399 20.2067 129.119 20.7C128.853 21.18 128.719 21.7533 128.719 22.42C128.719 23.0867 128.853 23.6733 129.119 24.18C129.399 24.6733 129.759 25.0533 130.199 25.32C130.653 25.5867 131.133 25.72 131.639 25.72C132.159 25.72 132.646 25.5933 133.099 25.34C133.553 25.0733 133.913 24.7 134.179 24.22C134.446 23.7267 134.579 23.14 134.579 22.46ZM146.274 16.76C147.594 16.76 148.661 17.18 149.474 18.02C150.287 18.8467 150.694 20.0067 150.694 21.5V28H147.894V21.88C147.894 21 147.674 20.3267 147.234 19.86C146.794 19.38 146.194 19.14 145.434 19.14C144.661 19.14 144.047 19.38 143.594 19.86C143.154 20.3267 142.934 21 142.934 21.88V28H140.134V16.92H142.934V18.3C143.307 17.82 143.781 17.4467 144.354 17.18C144.941 16.9 145.581 16.76 146.274 16.76ZM159.917 28L156.157 23.28V28H153.357V13.2H156.157V21.62L159.877 16.92H163.517L158.637 22.48L163.557 28H159.917Z" fill="black"/>
<path d="M24.4671 2.13898e-06C26.981 4.30373 29.495 8.55917 31.9158 12.8629C27.9501 19.8737 23.9843 26.9362 19.8737 33.8987C18.277 36.5575 16.7769 39.268 15.1837 41.9268C10.1075 41.9751 5.0279 41.9751 -3.66536e-06 41.9268C0.144833 41.5889 0.28967 41.2509 0.482786 40.913C8.50744 27.2742 16.5355 13.6871 24.4671 2.13898e-06ZM24.4671 26.1155C29.5433 26.1155 34.6229 26.0672 39.6991 26.1637C42.7441 31.4365 45.8409 36.6575 48.8376 41.9786C43.7614 42.0268 38.6818 41.9785 33.6056 41.9785C30.6089 36.6575 27.4638 31.433 24.4671 26.1155Z" fill="#AE285D"/>
</svg>
