<svg width="436" height="180" viewBox="0 0 436 180" fill="none" xmlns="http://www.w3.org/2000/svg">
<circle cx="212.637" cy="63.617" r="63.617" fill="#2ACB74"/>
<path d="M236.626 50.0596L206.049 80.5331L190.738 66.0205" stroke="white" stroke-width="6" stroke-linecap="round"/>
<path d="M393.026 105.061C386.189 102.616 381.518 98.3738 376.25 92.1601L378.478 87.2559C384.007 94.8211 385.82 98.9149 392.73 98.3233L393.023 105.061H393.026Z" fill="#FFB900"/>
<path d="M301.176 123.516C293.978 125.364 287.993 124.304 280.654 121.808L280.641 116.046C288.778 119.604 292.113 122.234 298.12 117.597L301.176 123.519V123.516Z" fill="#14CCA1"/>
<path d="M116.132 100.075C112.729 105.074 108.907 107.747 103.764 110.34L101.555 107.06C107.558 104.634 110.468 104.309 112.124 98.3701L116.13 100.075H116.132Z" fill="#FF5C33"/>
<path d="M12.4877 102.368C6.31851 97.7361 3.08869 92.058 0 84.2544L4.19877 80.1914C7.0459 89.3998 7.35531 93.9955 14.7676 95.6836L12.4877 102.366V102.368Z" fill="#14CCA1"/>
<path d="M49.3981 153.469C42.4092 158.511 35.8139 159.977 27.3702 160.524L25.625 154.49C35.2249 154.714 39.5105 156.032 44.415 148.579L49.3981 153.469Z" fill="#007BFF"/>
<path d="M149.488 14.4387C142.477 18.698 136.058 19.556 127.913 19.3766L126.586 13.4321C135.795 14.4499 139.839 16.0763 144.985 9.32422L149.488 14.4387Z" fill="#FFB900"/>
<path d="M248.845 29.1274C243.002 26.1495 239.224 21.8398 235.082 15.713L237.462 11.6416C241.724 18.9909 242.986 22.8296 249.144 23.1324L248.843 29.1246L248.845 29.1274Z" fill="#14CCA1"/>
<path d="M339.805 52.6877C346.2 48.7957 349.747 43.7177 353.286 36.6404L349.375 32.5381C345.991 40.9473 345.402 45.2234 337.957 46.2721L339.805 52.6849V52.6877Z" fill="#FF5C33"/>
<path d="M77.7766 68.2086C79.2756 68.2086 80.4908 66.9532 80.4908 65.4046C80.4908 63.856 79.2756 62.6006 77.7766 62.6006C76.2777 62.6006 75.0625 63.856 75.0625 65.4046C75.0625 66.9532 76.2777 68.2086 77.7766 68.2086Z" fill="#FF5C33"/>
<path d="M293.46 68.2086C294.959 68.2086 296.174 66.9532 296.174 65.4046C296.174 63.856 294.959 62.6006 293.46 62.6006C291.961 62.6006 290.746 63.856 290.746 65.4046C290.746 66.9532 291.961 68.2086 293.46 68.2086Z" fill="#FFB900"/>
<path d="M364.394 153.637C365.893 153.637 367.108 152.382 367.108 150.833C367.108 149.285 365.893 148.029 364.394 148.029C362.895 148.029 361.68 149.285 361.68 150.833C361.68 152.382 362.895 153.637 364.394 153.637Z" fill="#FF5C33"/>
<path d="M108.556 168.786L103.129 174.394L108.556 180.001L113.984 174.394L108.556 168.786Z" fill="#FFB900"/>
<path d="M429.759 139.874L424.332 145.481L429.759 151.089L435.187 145.481L429.759 139.874Z" fill="#14CCA1"/>
</svg>
